<svg width="645" height="202" viewBox="0 0 645 202" fill="none" xmlns="http://www.w3.org/2000/svg">
<path d="M2 19L25 43L2 66L25 83L2 108L42 166L66 83L91 166L130 108L106.5 83L130 66L106.5 43L130 19M213 83L240 166L265.5 83M213 157L240 184L265.5 157M519 90V166H514M519 90H498V166H503M519 90C519 90 529.428 83.0241 538 83.5C545.279 83.9042 547.28 86.1973 553.5 90L561.46 101V132.966V166M503 166V173H514V166M503 166H514M628 35C628 53.7452 628 83 628 83M628 83V166C628 166 605.998 166.444 597 157.5C589.026 149.574 586.967 132.774 586.5 124C585.956 113.782 588.63 100.254 597 93C605.37 85.7457 628 83 628 83ZM610.5 43C611.7 43 622.333 27 628 19L643.5 43M375.407 24V83M375.407 83V166C375.407 166 397.409 166.444 406.407 157.5C414.381 149.574 418.44 132.774 418.907 124C419.451 113.782 414.777 100.254 406.407 93C398.038 85.7457 375.407 83 375.407 83ZM285 126H333C338.523 126 343 121.523 343 116V102L332.5 88C330.611 85.4819 327.648 84 324.5 84H313.107C310.776 84 308.518 84.8144 306.724 86.3024L291.499 98.9275C289.875 100.275 288.716 102.098 288.244 104.155C287.085 109.208 285 119.234 285 126ZM285 126C285 134.53 288.59 145.972 290.628 151.78C291.472 154.185 293.286 156.1 295.595 157.178L312.49 165.062C313.814 165.68 315.257 166 316.718 166H341.5M610.5 26C611.7 26 622.333 10 628 2L643.5 26M213 173L240 200L265.5 173M151 166L172 83L189 166L172 135L151 166ZM436 166L457 83L474 166L457 135L436 166Z" stroke="#007D06" stroke-width="3" stroke-linecap="round" stroke-linejoin="round"/>
</svg>
