<svg width="645" height="211" viewBox="0 0 645 211" fill="none" xmlns="http://www.w3.org/2000/svg">
<path d="M2 15L25 39L2 62L25 79L2 104L42 162L66 79L91 162L130 104L106.5 79L130 62L106.5 39L130 15M213 79L240 162L265.5 79M213 153L240 180L265.5 153M213 189L240 209L265.5 189M519 86V162H514M519 86H498V162H503M519 86C519 86 529.428 79.0241 538 79.5C545.279 79.9042 547.28 82.1973 553.5 86L561.46 97V128.966V162M503 162V169H514V162M503 162H514M628 31V79M628 79V162C628 162 605.998 162.444 597 153.5C589.026 145.574 586.967 128.774 586.5 120C585.956 109.782 588.63 96.2543 597 89C605.37 81.7457 628 79 628 79ZM609.5 39C610.7 39 622.333 23 628 15L643.5 39M609.5 20L628 2L643.5 20M375.407 20V79M375.407 79V162C375.407 162 397.409 162.444 406.407 153.5C414.381 145.574 418.44 128.774 418.907 120C419.451 109.782 414.777 96.2543 406.407 89C398.038 81.7457 375.407 79 375.407 79ZM285 122H333C338.523 122 343 117.523 343 112V98L332.5 84C330.611 81.4819 327.648 80 324.5 80H313.107C310.776 80 308.518 80.8144 306.724 82.3024L291.499 94.9275C289.875 96.2745 288.716 98.0979 288.244 100.155C287.085 105.208 285 115.234 285 122ZM285 122C285 130.53 288.59 141.972 290.628 147.78C291.472 150.185 293.286 152.1 295.595 153.178L312.49 161.062C313.814 161.68 315.257 162 316.718 162H341.5M151 162L172 79L189 162L172 131L151 162ZM436 162L457 79L474 162L457 131L436 162Z" stroke="#007D06" stroke-width="3" stroke-linecap="round" stroke-linejoin="round"/>
</svg>
